# xmcd CD Database Entry
#
# Track frame offsets:
# 150
# 9666
# 22445
# 32521
# 44541
# 58707
# 68079
# 76550
# 86114
# 104226
# 114361
# 128346
# 140581
# 150257
# 160542
# 170476
# 179378
# 195313
# 205860
# 219105
# 235364
# 244862
# 257220
# 269292
# 283482
# 294467
# 311279
# 322467
#
# Disc length: 4492 seconds
#
# Revision: 1
# Processed by: cddbd v1.4PL0 Copyright (c) Steve Scherf et al.
# Submitted via: tcd 2.0b
#
DISCID=93118a1c
DTITLE=Orchestral - Sing Praises to Jehovah Disc 3
DYEAR=1900
DGENRE=
TTITLE0=058 Jehovah, "the God of All Comfort"
TTITLE1=059 Appreciating God's Reminders
TTITLE2=060 God's Kingdom of a Thousand Years
TTITLE3=061 "I Am Jehovah"!
TTITLE4=062 Happy, the Merciful!
TTITLE5=063 Let the Light Shine
TTITLE6=064 faith like that of Abraham
TTITLE7=065 Meeting in Unity
TTITLE8=066 The Power of Kindness
TTITLE9=067 Store Up Treasures in Heaven
TTITLE10=068 Godly Compassion
TTITLE11=069 Godly Devotion With Contenement
TTITLE12=070 Be Like Jeremiah
TTITLE13=071 Hold Fast the Good News!
TTITLE14=072 The Joys and Fruits of Kingdom Service
TTITLE15=073 'Wisdom is With the Modest Ones"
TTITLE16=074 Jehovah, Provider of Escape
TTITLE17=075 Joyful Praises to Jehovah
TTITLE18=076 Jehovah, Our Best Friend
TTITLE19=077 Jehovah Is My Shepherd
TTITLE20=078 Speaking the "Pure Language"
TTITLE21=079 Creation Reveals Jehovah's Glory
TTITLE22=080 Walking in the Name of Our God
TTITLE23=081 Gratitude for Divine Patience
TTITLE24=082 The Women Are a Large Army
TTITLE25=083 Zion's Reason for Rejoicing
TTITLE26=084 God's Great and Wondrous Works
TTITLE27=Jehovah Is Our Refuge
EXTD=
EXTT0=
EXTT1=
EXTT2=
EXTT3=
EXTT4=
EXTT5=
EXTT6=
EXTT7=
EXTT8=
EXTT9=
EXTT10=
EXTT11=
EXTT12=
EXTT13=
EXTT14=
EXTT15=
EXTT16=
EXTT17=
EXTT18=
EXTT19=
EXTT20=
EXTT21=
EXTT22=
EXTT23=
EXTT24=
EXTT25=
EXTT26=
EXTT27=
PLAYORDER=
